<svg width="90" height="77" viewBox="0 0 90 77" fill="none" xmlns="http://www.w3.org/2000/svg">
<g clip-path="url(#clip0)">
<path d="M22.191 44.964H-1.52588e-05L6.49998 38.549H22.188L22.191 44.964Z" fill="white"/>
<path d="M29.334 27.167L23.6 32.561H34.779L29.334 27.167Z" fill="white"/>
<path d="M22.13 46.427H0V76.049H22.13V46.427Z" fill="white"/>
<path d="M36.209 44.829H58.457L51.957 38.414H36.209V44.829Z" fill="white"/>
<path d="M58.683 76.05H36.195V46.483L58.684 46.423L58.683 76.05Z" fill="white"/>
<path d="M34.707 33.867H23.645V76.049H34.707V33.867Z" fill="white"/>
<path d="M80.649 46.25L78.774 -5.72205e-06H74.981L73.106 46.25H64.278V76.05H70.103V71.601C70.1048 70.9922 70.348 70.409 70.7791 69.9792C71.2103 69.5493 71.7942 69.308 72.403 69.308C73.0118 69.308 73.5958 69.5493 74.0269 69.9792C74.458 70.409 74.7011 70.9922 74.703 71.601V76.05H78.767V71.601C78.767 70.9902 79.0096 70.4044 79.4415 69.9725C79.8734 69.5406 80.4592 69.298 81.07 69.298C81.6808 69.298 82.2666 69.5406 82.6985 69.9725C83.1304 70.4044 83.373 70.9902 83.373 71.601V76.05H89.553V46.25H80.649Z" fill="white"/>
</g>
<defs>
<clipPath id="clip0">
<rect width="89.561" height="76.05" fill="white"/>
</clipPath>
</defs>
</svg>
