<svg width="205" height="71" viewBox="0 0 205 71" fill="none" xmlns="http://www.w3.org/2000/svg">
<path d="M203.18 70.778L193.286 59.3L192.281 60.24V70.778H191.061V48.893H192.281V58.879L202.681 48.893H204.309L194.125 58.51L204.807 70.778H203.18ZM181.121 70.778V48.893H182.343V70.778H181.121ZM172.81 70.778L165.765 60.822H164.528V70.778H163.307V48.893H165.545C166.877 48.8694 168.201 49.0911 169.453 49.547C170.511 49.9272 171.439 50.6017 172.127 51.491C172.795 52.4131 173.137 53.5311 173.1 54.669C173.131 55.7785 172.838 56.873 172.257 57.819C171.68 58.7135 170.872 59.4356 169.919 59.909C169.028 60.3557 168.066 60.6444 167.076 60.762L174.263 70.778H172.81ZM164.529 59.749H165.719C166.811 59.7693 167.897 59.582 168.919 59.197C169.807 58.8652 170.574 58.2726 171.119 57.497C171.67 56.6695 171.95 55.6908 171.919 54.697C171.95 53.7706 171.668 52.8608 171.119 52.114C170.548 51.3902 169.781 50.8459 168.909 50.546C167.859 50.1798 166.752 50.003 165.64 50.024H164.54L164.529 59.749ZM143.456 70.778V48.893H146.656C147.957 48.8586 149.252 49.0861 150.463 49.562C151.419 49.9337 152.236 50.5926 152.802 51.448C153.47 52.5352 153.729 53.825 153.532 55.0858C153.335 56.3466 152.694 57.4958 151.726 58.327C151.166 58.8054 150.506 59.1525 149.794 59.343V59.372C150.893 59.4673 151.963 59.7729 152.947 60.272C153.76 60.6909 154.443 61.3232 154.924 62.101C155.396 62.921 155.632 63.8554 155.606 64.801C155.653 65.9248 155.346 67.0349 154.728 67.9748C154.11 68.9148 153.213 69.6371 152.163 70.04C150.857 70.5656 149.458 70.8175 148.051 70.78L143.456 70.778ZM144.677 69.647H148.136C149.318 69.6825 150.496 69.4752 151.595 69.038C152.451 68.6932 153.177 68.0894 153.673 67.311C154.133 66.5447 154.37 65.6648 154.355 64.771C154.41 63.8524 154.15 62.9425 153.62 62.1909C153.089 61.4392 152.318 60.8905 151.434 60.635C150.194 60.2231 148.891 60.0316 147.584 60.069H144.677V69.647ZM144.677 59.053H147.089C148.075 59.0799 149.053 58.8657 149.937 58.429C150.693 58.0484 151.323 57.4583 151.753 56.729C152.171 56.0061 152.387 55.184 152.378 54.349C152.4 53.5415 152.188 52.7449 151.768 52.055C151.316 51.38 150.673 50.8547 149.922 50.546C148.95 50.1508 147.905 49.9631 146.856 49.995H144.676L144.677 59.053ZM136.046 70.778L133.127 63.464H122.84L119.888 70.778H118.58L128 47.965H128.087L137.387 70.778H136.046ZM127.081 52.972C126.702 53.9107 126.32 54.854 125.933 55.802L123.3 62.332H132.679L130.062 55.772C129.256 53.7793 128.577 52.054 128.025 50.596C127.712 51.3913 127.398 52.1833 127.081 52.972V52.972ZM105.241 70.778V48.893H114.191V50.025H106.461V58.181H113.901V59.313H106.461V70.778H105.241ZM71.7 45.351L65.454 31.187L63.1 44.422H59.67L64.291 20.883H64.349L71.788 37.891L79.549 20.883H79.607L83.734 44.422H80.334L78.241 31.216L71.76 45.351H71.7ZM37.133 43.334C35.4081 42.3466 33.9707 40.9261 32.963 39.213C31.9148 37.4542 31.3719 35.4404 31.394 33.393C31.385 31.4116 31.9283 29.4668 32.963 27.777C33.9902 26.0637 35.4415 24.6441 37.177 23.655C38.9149 22.6464 40.8907 22.1206 42.9 22.132C44.8917 22.1203 46.8495 22.6465 48.567 23.655C50.2908 24.6504 51.7275 26.0754 52.737 27.791C53.7696 29.5185 54.3075 31.4965 54.292 33.509C54.3056 35.5096 53.7624 37.4745 52.723 39.184C51.6937 40.8971 50.239 42.315 48.5 43.3C46.7464 44.3112 44.7552 44.8372 42.731 44.824C40.7656 44.8347 38.833 44.3203 37.133 43.334V43.334ZM38.789 26.325C37.5522 27.0382 36.5248 28.0642 35.81 29.3C35.0776 30.5494 34.6975 31.9738 34.71 33.422C34.6907 34.9165 35.083 36.3876 35.844 37.674C36.5636 38.9058 37.5894 39.9307 38.822 40.649C40.0141 41.3547 41.3746 41.7258 42.76 41.723C44.2071 41.7078 45.6252 41.3149 46.8738 40.5831C48.1224 39.8514 49.1581 38.8062 49.8785 37.551C50.5989 36.2958 50.9789 34.8742 50.9809 33.427C50.983 31.9798 50.6069 30.5572 49.89 29.3C49.1826 28.0575 48.1567 27.026 46.9181 26.3118C45.6794 25.5977 44.2728 25.2266 42.843 25.237C41.4185 25.2295 40.0183 25.6053 38.789 26.325V26.325ZM128.489 44.425V44.367L139.242 25.645H130.233V22.537H144.676V22.6L133.924 41.316H144.444V44.422L128.489 44.425ZM114.539 44.425V22.537H117.853V41.316H124.3V44.422L114.539 44.425ZM105.386 44.425L103.074 39.114H93.679L91.261 44.425H87.714L98.555 21.173H98.642L109.018 44.422L105.386 44.425ZM97.8 30.1C97.3733 31.0393 96.9373 31.9827 96.492 32.93L95.092 36.007H101.722L100.357 32.87C99.6203 31.172 99.0013 29.7153 98.5 28.5C98.274 29.0333 98.0407 29.5667 97.8 30.1ZM20.873 44.422V22.537H24.186V44.422H20.873ZM0.5 44.422V22.537H4.278C5.69597 22.5032 7.10846 22.7247 8.448 23.191C9.50971 23.5574 10.4296 24.2479 11.078 25.165C11.7065 26.1453 12.0206 27.2943 11.978 28.458C11.9813 29.0617 11.878 29.6612 11.673 30.229C11.4762 30.7805 11.1811 31.2917 10.802 31.738C10.4389 32.1707 10.0009 32.5345 9.509 32.812V32.841C10.3394 33.0712 11.1153 33.4653 11.791 34C12.4206 34.4968 12.9328 35.1264 13.291 35.844C13.6419 36.5616 13.8207 37.3512 13.813 38.15C13.8581 39.3913 13.5125 40.6155 12.825 41.65C12.1345 42.6131 11.1663 43.3423 10.05 43.74C8.69331 44.2216 7.2603 44.4524 5.821 44.421L0.5 44.422ZM3.813 41.316H6.138C6.9673 41.3448 7.79359 41.2018 8.565 40.896C9.13859 40.6625 9.62563 40.2569 9.959 39.735C10.2652 39.2216 10.4214 38.6327 10.41 38.035C10.4233 37.4286 10.2671 36.8305 9.959 36.308C9.60204 35.7689 9.0831 35.3571 8.477 35.132C7.61791 34.8135 6.70464 34.6667 5.789 34.7H3.813V41.316ZM3.813 31.942H4.913C5.64179 31.967 6.36692 31.8283 7.035 31.536C7.56635 31.2936 8.00516 30.8861 8.286 30.374C8.57102 29.8075 8.71055 29.1789 8.692 28.545C8.71795 27.9516 8.57731 27.3627 8.286 26.845C7.99455 26.3948 7.55871 26.0569 7.05 25.887C6.36022 25.6648 5.63729 25.5633 4.913 25.587H3.813V31.942ZM174.232 44.348V27.3L187.153 27.265V44.345L174.232 44.348ZM167.021 44.348V20.027H173.376V44.348H167.021ZM153.434 44.348V27.269H166.15V44.349L153.434 44.348ZM201.343 44.348V41.783C201.343 41.4321 201.204 41.0956 200.956 40.8475C200.707 40.5994 200.371 40.46 200.02 40.46C199.669 40.46 199.333 40.5994 199.085 40.8475C198.836 41.0956 198.697 41.4321 198.697 41.783V44.348H196.361V41.783C196.361 41.4321 196.222 41.0956 195.973 40.8475C195.725 40.5994 195.389 40.46 195.038 40.46C194.687 40.46 194.351 40.5994 194.102 40.8475C193.854 41.0956 193.715 41.4321 193.715 41.783V44.348H190.368V27.166H195.44L196.517 0.5H198.697L199.774 27.166H204.894V44.347L201.343 44.348ZM153.434 26.425L157.17 22.725H166.184V26.425H153.434ZM174.239 26.347V22.647H183.286L187.022 26.347H174.239ZM166.994 19.274L170.288 16.165L173.417 19.274H166.994Z" fill="white"/>
</svg>
