<svg width="218" height="76" viewBox="0 0 218 76" fill="none" xmlns="http://www.w3.org/2000/svg">
<path d="M215.077 74.664L204.6 62.559L203.536 63.55V74.664H202.245V51.577H203.536V62.111L214.55 51.577H216.273L205.492 61.722L216.8 74.664H215.077ZM191.726 74.664V51.577H193.019V74.664H191.726ZM182.926 74.664L175.469 64.164H174.16V74.664H172.867V51.577H175.236C175.625 51.577 176.004 51.5913 176.371 51.62C176.738 51.6487 177.094 51.6917 177.439 51.749C177.784 51.8063 178.117 51.8783 178.439 51.965C178.755 52.0487 179.066 52.1489 179.372 52.265C179.664 52.3762 179.948 52.5054 180.224 52.652C180.486 52.7915 180.739 52.9489 180.98 53.123C181.213 53.2917 181.433 53.4772 181.639 53.678C181.842 53.8767 182.031 54.0903 182.202 54.317C182.373 54.5436 182.524 54.7848 182.653 55.038C182.783 55.2949 182.891 55.5626 182.975 55.838C183.062 56.1248 183.127 56.418 183.168 56.715C183.212 57.0315 183.233 57.3506 183.232 57.67C183.232 57.9812 183.214 58.2921 183.176 58.601C183.14 58.8925 183.085 59.1812 183.009 59.465C182.936 59.7383 182.843 60.0058 182.73 60.265C182.619 60.5182 182.488 60.7623 182.339 60.995C182.043 61.4577 181.685 61.8773 181.275 62.242C181.066 62.428 180.845 62.6 180.613 62.757C180.373 62.9195 180.122 63.0671 179.864 63.199C179.641 63.313 179.412 63.417 179.175 63.511C178.938 63.605 178.695 63.6897 178.444 63.765C178.193 63.8403 177.936 63.907 177.671 63.965C177.406 64.023 177.134 64.0687 176.855 64.102L184.463 74.668L182.926 74.664ZM174.161 63.03H175.421C175.739 63.03 176.048 63.018 176.348 62.994C176.648 62.97 176.939 62.9337 177.221 62.885C177.503 62.8363 177.776 62.7757 178.04 62.703C178.299 62.6318 178.555 62.5466 178.805 62.448C179.046 62.354 179.279 62.2437 179.505 62.118C179.721 61.9974 179.929 61.861 180.125 61.71C180.317 61.5617 180.498 61.3989 180.666 61.223C180.834 61.0463 180.989 60.8571 181.129 60.657C181.27 60.4548 181.394 60.241 181.499 60.018C181.606 59.7905 181.694 59.5548 181.763 59.313C181.835 59.06 181.888 58.8019 181.922 58.541C181.958 58.2628 181.976 57.9825 181.975 57.702C181.976 57.4414 181.958 57.1811 181.922 56.923C181.888 56.6811 181.835 56.4424 181.763 56.209C181.694 55.9854 181.606 55.7682 181.499 55.56C181.393 55.3547 181.27 55.1592 181.129 54.976C180.988 54.7921 180.833 54.6193 180.665 54.459C180.495 54.2964 180.312 54.1467 180.12 54.011C179.921 53.8705 179.712 53.7438 179.495 53.632C179.266 53.5142 179.031 53.4106 178.789 53.322C178.535 53.2285 178.276 53.148 178.014 53.081C177.747 53.0143 177.469 52.957 177.179 52.909C176.889 52.861 176.589 52.8277 176.279 52.809C175.97 52.7863 175.652 52.775 175.324 52.775H174.157L174.161 63.03ZM151.855 74.664V51.577H155.24C155.635 51.577 156.015 51.5917 156.38 51.621C156.745 51.6503 157.096 51.6943 157.432 51.753C157.757 51.8091 158.078 51.8826 158.395 51.973C158.693 52.0579 158.985 52.1608 159.27 52.281C159.537 52.3939 159.797 52.5238 160.047 52.67C160.282 52.807 160.507 52.9611 160.719 53.131C160.922 53.2935 161.111 53.4721 161.285 53.665C161.455 53.854 161.609 54.0571 161.745 54.272C161.881 54.486 162 54.71 162.102 54.942C162.205 55.1767 162.29 55.4187 162.357 55.666C162.426 55.9211 162.477 56.1808 162.51 56.443C162.544 56.7183 162.561 56.9955 162.561 57.273C162.561 57.4841 162.55 57.6951 162.528 57.905C162.506 58.1094 162.473 58.3123 162.428 58.513C162.341 58.9093 162.21 59.2944 162.036 59.661C161.95 59.8424 161.854 60.0193 161.75 60.191C161.647 60.3595 161.536 60.5224 161.416 60.679C161.297 60.8345 161.169 60.9834 161.034 61.125C160.762 61.4091 160.46 61.6632 160.134 61.883C159.814 62.0992 159.471 62.2789 159.111 62.419C158.929 62.4894 158.744 62.5499 158.556 62.6V62.63C158.884 62.666 159.2 62.7127 159.503 62.77C159.806 62.8273 160.097 62.8957 160.375 62.975C160.646 63.0514 160.913 63.1415 161.175 63.245C161.422 63.3426 161.663 63.4541 161.897 63.579C162.119 63.6993 162.335 63.8329 162.541 63.979C162.738 64.1178 162.926 64.2695 163.104 64.433C163.277 64.5919 163.438 64.7626 163.587 64.944C163.734 65.124 163.867 65.3141 163.987 65.513C164.108 65.7134 164.214 65.9226 164.303 66.139C164.395 66.3609 164.47 66.5892 164.529 66.822C164.591 67.0657 164.636 67.3133 164.665 67.563C164.696 67.8286 164.711 68.0957 164.71 68.363C164.71 68.6746 164.691 68.9859 164.652 69.295C164.615 69.5877 164.557 69.8775 164.479 70.162C164.404 70.4356 164.307 70.7031 164.191 70.962C164.077 71.2178 163.943 71.4642 163.791 71.699C163.637 71.9341 163.464 72.1564 163.275 72.364C163.082 72.5751 162.872 72.771 162.649 72.95C162.416 73.1365 162.171 73.3062 161.914 73.458C161.642 73.6186 161.36 73.7619 161.07 73.887C160.762 74.0203 160.445 74.1345 160.123 74.229C159.781 74.3292 159.433 74.4106 159.082 74.473C158.719 74.5397 158.341 74.5883 157.947 74.619C157.553 74.6497 157.143 74.666 156.718 74.668L151.855 74.664ZM153.147 73.47H156.808C157.172 73.47 157.521 73.4567 157.856 73.43C158.191 73.4033 158.511 73.363 158.816 73.309C159.11 73.2583 159.401 73.1915 159.687 73.109C159.954 73.032 160.215 72.9381 160.47 72.828C160.708 72.725 160.939 72.6064 161.161 72.473C161.371 72.3475 161.572 72.2064 161.761 72.051C161.941 71.9017 162.108 71.7382 162.261 71.562C162.413 71.3884 162.549 71.2024 162.67 71.006C162.91 70.6144 163.092 70.1904 163.211 69.747C163.272 69.5204 163.317 69.2898 163.347 69.057C163.377 68.8149 163.392 68.571 163.392 68.327C163.393 68.0756 163.377 67.8244 163.346 67.575C163.317 67.3403 163.271 67.1081 163.208 66.88C163.148 66.662 163.071 66.449 162.977 66.243C162.886 66.0412 162.778 65.8472 162.655 65.663C162.53 65.4768 162.388 65.3028 162.231 65.143C162.066 64.9761 161.888 64.8236 161.697 64.687C161.493 64.5404 161.278 64.4091 161.054 64.294C160.81 64.1686 160.559 64.0584 160.301 63.964C160.019 63.8608 159.732 63.7736 159.44 63.703C159.135 63.6283 158.813 63.566 158.474 63.516C158.135 63.466 157.777 63.4273 157.4 63.4C157.025 63.3753 156.633 63.363 156.222 63.363H153.145L153.147 73.47ZM153.147 62.294H155.7C155.983 62.2945 156.265 62.2808 156.546 62.253C156.81 62.227 157.072 62.1859 157.331 62.13C157.576 62.0768 157.818 62.008 158.054 61.924C158.281 61.8435 158.502 61.7472 158.715 61.636C158.92 61.5292 159.118 61.4093 159.308 61.277C159.49 61.1499 159.663 61.0102 159.826 60.859C160.145 60.5627 160.418 60.221 160.637 59.845C160.746 59.6577 160.843 59.4632 160.926 59.263C161.009 59.0639 161.078 58.8594 161.133 58.651C161.189 58.4396 161.23 58.2248 161.257 58.008C161.285 57.7847 161.298 57.56 161.298 57.335C161.299 57.1081 161.285 56.8813 161.258 56.656C161.232 56.4435 161.192 56.233 161.137 56.026C161.085 55.8279 161.018 55.6341 160.937 55.446C160.857 55.2622 160.763 55.085 160.655 54.916C160.547 54.747 160.425 54.5872 160.291 54.438C160.153 54.285 160.004 54.1429 159.844 54.013C159.676 53.877 159.499 53.7531 159.314 53.642C159.117 53.5235 158.912 53.4173 158.702 53.324C158.477 53.2246 158.245 53.1397 158.009 53.07C157.755 52.995 157.498 52.9342 157.237 52.888C156.966 52.8393 156.683 52.803 156.386 52.779C156.089 52.755 155.779 52.743 155.456 52.743H153.148L153.147 62.294ZM144.011 74.663L140.921 66.947H130.032L126.907 74.663H125.522L135.49 50.6H135.582L145.426 74.666L144.011 74.663ZM134.521 55.879L134.221 56.623L133.921 57.368L133.621 58.115L133.315 58.864L130.525 65.754H140.454L137.684 58.833C137.471 58.3077 137.266 57.7997 137.069 57.309C136.872 56.8183 136.684 56.3457 136.504 55.891C136.324 55.4357 136.153 54.9983 135.99 54.579C135.827 54.1597 135.673 53.7577 135.527 53.373L135.27 54L135.021 54.627L134.771 55.253L134.521 55.879ZM111.4 74.664V51.577H120.875V52.771H112.692V61.371H120.568V62.57H112.692V74.664H111.4ZM75.9 47.841L69.284 32.9L66.792 46.861H63.162L68.054 22.029H68.116L75.99 39.971L84.205 22.029H84.267L88.636 46.861H85.036L82.82 32.929L75.96 47.841H75.9ZM39.3 45.713C38.8489 45.4531 38.4147 45.1649 38 44.85C37.5877 44.5385 37.1962 44.2005 36.828 43.838C36.4583 43.4737 36.1126 43.0859 35.793 42.677C35.4662 42.259 35.1656 41.8212 34.893 41.366C34.6185 40.9088 34.3756 40.4334 34.166 39.943C33.9584 39.4557 33.7849 38.9545 33.647 38.443C33.5078 37.9267 33.4039 37.4014 33.336 36.871C33.2674 36.3247 33.234 35.7746 33.236 35.224C33.2342 34.7007 33.2676 34.1778 33.336 33.659C33.4733 32.6378 33.7527 31.6408 34.166 30.697C34.3769 30.2147 34.6198 29.747 34.893 29.297C35.1657 28.8454 35.4663 28.4112 35.793 27.997C36.4398 27.1792 37.1893 26.4482 38.023 25.822C38.4475 25.5032 38.8914 25.211 39.352 24.947C39.8124 24.6832 40.2894 24.4493 40.78 24.247C41.7503 23.8468 42.7696 23.5778 43.811 23.447C44.3417 23.3798 44.8761 23.3464 45.411 23.347C45.9413 23.3464 46.471 23.3798 46.997 23.447C48.0284 23.5779 49.0374 23.8469 49.997 24.247C50.4827 24.4494 50.9547 24.6833 51.41 24.947C51.8658 25.211 52.3047 25.5033 52.724 25.822C53.5508 26.451 54.2926 27.1844 54.931 28.004C55.2552 28.4204 55.5531 28.8566 55.823 29.31C56.0943 29.7637 56.3349 30.2351 56.543 30.721C56.7481 31.2006 56.9198 31.6938 57.057 32.197C57.195 32.703 57.2982 33.2179 57.366 33.738C57.4341 34.2703 57.4675 34.8064 57.466 35.343C57.4678 35.875 57.4344 36.4065 57.366 36.934C57.23 37.9658 56.9506 38.9735 56.536 39.928C56.3257 40.4105 56.0832 40.8782 55.81 41.328C55.5376 41.7798 55.237 42.214 54.91 42.628C54.2609 43.4462 53.5087 44.177 52.672 44.802C52.2455 45.1209 51.7996 45.4131 51.337 45.677C50.8736 45.9411 50.3936 46.1749 49.9 46.377C49.4116 46.5767 48.9105 46.7438 48.4 46.877C47.8881 47.011 47.368 47.1113 46.843 47.177C46.307 47.2442 45.7672 47.2776 45.227 47.277C44.7061 47.2769 44.1857 47.2435 43.669 47.177C42.6511 47.0469 41.655 46.782 40.707 46.389C40.2241 46.1939 39.7541 45.9681 39.3 45.713V45.713ZM41.057 27.77C40.7304 27.9588 40.4161 28.1683 40.116 28.397C39.5238 28.8486 38.9936 29.3761 38.539 29.966C38.3077 30.2663 38.0956 30.581 37.904 30.908C37.711 31.2356 37.54 31.5757 37.392 31.926C37.2463 32.272 37.1244 32.6275 37.027 32.99C36.9292 33.3547 36.856 33.7255 36.808 34.1C36.7589 34.4834 36.7346 34.8695 36.735 35.256C36.7344 35.6608 36.7595 36.0653 36.81 36.467C36.859 36.8553 36.9341 37.2398 37.035 37.618C37.1345 37.9903 37.2598 38.3552 37.41 38.71C37.561 39.0657 37.7364 39.4105 37.935 39.742C38.1312 40.0708 38.3473 40.3874 38.582 40.69C38.8109 40.9852 39.0584 41.2654 39.323 41.529C39.5853 41.7901 39.8642 42.034 40.158 42.259C40.7494 42.7109 41.3955 43.0862 42.081 43.376C42.4148 43.5166 42.7575 43.6349 43.107 43.73C43.4545 43.8246 43.808 43.8958 44.165 43.943C44.5267 43.9905 44.8912 44.0142 45.256 44.014C45.6441 44.0143 46.0319 43.9903 46.417 43.942C46.793 43.8949 47.1655 43.8231 47.532 43.727C47.8959 43.6313 48.2531 43.5113 48.601 43.368C48.9525 43.2238 49.2943 43.0568 49.624 42.868C49.953 42.6794 50.2697 42.4699 50.572 42.241C51.1673 41.7903 51.7003 41.2627 52.157 40.672C52.3891 40.3715 52.6019 40.0565 52.794 39.729C52.9871 39.4002 53.1579 39.0588 53.305 38.707C53.451 38.3574 53.573 37.9982 53.67 37.632C53.7685 37.26 53.842 36.8818 53.89 36.5C53.9391 36.1076 53.9635 35.7125 53.963 35.317C53.9635 34.9216 53.9395 34.5265 53.891 34.134C53.8439 33.7533 53.7718 33.3762 53.675 33.005C53.5791 32.6389 53.4585 32.2798 53.314 31.93C53.1688 31.5784 53.0001 31.237 52.809 30.908C52.6201 30.5811 52.4107 30.2664 52.182 29.966C51.733 29.3774 51.2081 28.8509 50.621 28.4C50.3234 28.1713 50.0114 27.9618 49.687 27.773C49.3622 27.584 49.0251 27.417 48.678 27.273C48.3332 27.1295 47.9791 27.0095 47.618 26.914C47.2532 26.8178 46.8824 26.746 46.508 26.699C46.1236 26.6507 45.7365 26.6267 45.349 26.627C44.9702 26.6267 44.5917 26.6508 44.216 26.699C43.4782 26.7935 42.7564 26.9866 42.07 27.273C41.722 27.4167 41.3836 27.5827 41.057 27.77ZM136.011 46.861V46.8L147.393 27.05H137.857V23.774H153.146V23.835L141.764 43.585H152.9V46.861H136.011ZM121.244 46.861V23.774H124.752V43.585H131.582V46.861H121.244ZM111.554 46.861L109.106 41.261H99.162L96.602 46.861H92.848L104.324 22.335H104.416L115.4 46.861H111.554ZM103.524 31.75C103.411 31.998 103.298 32.246 103.184 32.494C103.07 32.742 102.955 32.9903 102.84 33.239C102.725 33.4877 102.609 33.7367 102.492 33.986C102.375 34.2353 102.258 34.485 102.14 34.735L100.657 37.981H107.676L106.231 34.674C106.036 34.226 105.848 33.7927 105.669 33.374C105.49 32.9553 105.318 32.5553 105.155 32.174C104.992 31.79 104.836 31.4233 104.688 31.074C104.54 30.7247 104.4 30.389 104.268 30.067L104.085 30.488C104.024 30.6287 103.962 30.769 103.9 30.909C103.838 31.049 103.776 31.189 103.713 31.329C103.651 31.4703 103.588 31.6107 103.525 31.75H103.524ZM22.092 46.861V23.774H25.6V46.861H22.092ZM0.526001 46.861V23.774H4.526C4.95667 23.774 5.37167 23.7883 5.771 23.817C6.17033 23.8457 6.554 23.8887 6.922 23.946C7.29 24.0033 7.64233 24.0753 7.979 24.162C8.3049 24.2444 8.62604 24.3445 8.941 24.462C9.23594 24.5721 9.52324 24.7018 9.801 24.85C10.0629 24.99 10.3139 25.1495 10.552 25.327C10.7806 25.4977 10.9949 25.6867 11.193 25.892C11.3882 26.0945 11.5661 26.3129 11.725 26.545C11.8849 26.7789 12.0244 27.0262 12.142 27.284C12.264 27.5508 12.3644 27.8271 12.442 28.11C12.5234 28.4093 12.5833 28.7141 12.621 29.022C12.6617 29.3538 12.6818 29.6877 12.681 30.022C12.681 30.1853 12.6743 30.3467 12.661 30.506C12.6477 30.6653 12.6277 30.823 12.601 30.979C12.5743 31.1343 12.541 31.288 12.501 31.44C12.461 31.592 12.4137 31.742 12.359 31.89C12.3057 32.038 12.2463 32.1823 12.181 32.323C12.1157 32.4637 12.0447 32.6 11.968 32.732C11.8913 32.8653 11.8087 32.994 11.72 33.118C11.6313 33.242 11.537 33.3633 11.437 33.482C11.337 33.5993 11.2333 33.711 11.126 33.817C11.0187 33.923 10.908 34.023 10.794 34.117C10.68 34.2117 10.5623 34.3003 10.441 34.383C10.3197 34.4657 10.195 34.543 10.067 34.615V34.645C10.2977 34.7117 10.521 34.787 10.737 34.871C10.953 34.955 11.1617 35.0483 11.363 35.151C11.5625 35.252 11.7568 35.3632 11.945 35.484C12.3134 35.7206 12.6562 35.9947 12.968 36.302C13.1184 36.4502 13.2606 36.6064 13.394 36.77C13.6567 37.0921 13.8825 37.4426 14.067 37.815C14.2511 38.1862 14.3904 38.5779 14.482 38.982C14.5272 39.1869 14.5606 39.3943 14.582 39.603C14.605 39.8176 14.6164 40.0332 14.616 40.249C14.6163 40.6004 14.5943 40.9514 14.55 41.3C14.5073 41.6272 14.4405 41.9507 14.35 42.268C14.2653 42.5691 14.1559 42.8628 14.023 43.146C13.8935 43.4215 13.7403 43.6851 13.565 43.934C13.3916 44.1805 13.199 44.4129 12.989 44.629C12.778 44.8464 12.5503 45.047 12.308 45.229C12.0583 45.4147 11.7952 45.5818 11.521 45.729C11.2327 45.8847 10.9344 46.021 10.628 46.137C10.3042 46.2594 9.97407 46.3642 9.639 46.451C9.295 46.541 8.93633 46.616 8.563 46.676C8.18967 46.736 7.802 46.7827 7.4 46.816C7 46.846 6.58367 46.861 6.151 46.861H0.526001ZM4.033 43.585H6.495C6.75633 43.585 7.006 43.5757 7.244 43.557C7.482 43.5383 7.708 43.5107 7.922 43.474C8.12677 43.439 8.32942 43.3926 8.529 43.335C8.71178 43.2823 8.89084 43.2175 9.065 43.141C9.22574 43.0701 9.38173 42.989 9.532 42.898C9.67212 42.8129 9.80581 42.7176 9.932 42.613C10.0526 42.5132 10.165 42.4038 10.268 42.286C10.3686 42.1705 10.4592 42.0467 10.539 41.916C10.6181 41.7878 10.688 41.6542 10.748 41.516C10.8079 41.3751 10.8577 41.23 10.897 41.082C10.9374 40.9302 10.9675 40.7759 10.987 40.62C11.0072 40.4571 11.0173 40.2931 11.017 40.129C11.0171 39.9619 11.0071 39.7949 10.987 39.629C10.9676 39.4698 10.9376 39.3121 10.897 39.157C10.8579 39.0073 10.8081 38.8606 10.748 38.718C10.6885 38.5774 10.6186 38.4413 10.539 38.311C10.4583 38.1794 10.3656 38.0555 10.262 37.941C10.1535 37.8212 10.0351 37.7108 9.908 37.611C9.77161 37.5039 9.62756 37.407 9.477 37.321C9.3133 37.2273 9.14398 37.1438 8.97 37.071C8.77889 36.9917 8.5828 36.9248 8.383 36.871C8.1624 36.8111 7.93875 36.763 7.713 36.727C7.47567 36.689 7.22467 36.6603 6.96 36.641C6.69533 36.6217 6.417 36.608 6.125 36.6H4.033V43.585ZM4.033 33.696H5.2C5.426 33.696 5.642 33.687 5.848 33.669C6.04624 33.6524 6.24349 33.6257 6.439 33.589C6.6192 33.5551 6.79719 33.5103 6.972 33.455C7.13452 33.4035 7.29324 33.3406 7.447 33.267C7.59181 33.1977 7.73149 33.1182 7.865 33.029C7.99221 32.9442 8.11258 32.8496 8.225 32.746C8.33382 32.6447 8.43415 32.5347 8.525 32.417C8.61672 32.2989 8.69866 32.1734 8.77 32.042C8.84262 31.907 8.90545 31.767 8.958 31.623C9.01272 31.4724 9.05749 31.3184 9.092 31.162C9.12867 30.997 9.15572 30.8301 9.173 30.662C9.1913 30.4806 9.20031 30.2983 9.2 30.116C9.20038 29.9406 9.19137 29.7654 9.173 29.591C9.15616 29.4314 9.1291 29.2731 9.092 29.117C9.05799 28.9732 9.01319 28.8321 8.958 28.695C8.90602 28.5665 8.84313 28.4427 8.77 28.325C8.69919 28.2097 8.6182 28.1009 8.528 28C8.43623 27.8997 8.33584 27.8077 8.228 27.725C8.11608 27.6389 7.99736 27.5619 7.873 27.495C7.74089 27.424 7.60388 27.3625 7.463 27.311C7.30915 27.2554 7.15222 27.2086 6.993 27.171C6.82567 27.131 6.64767 27.0977 6.459 27.071C6.27033 27.0443 6.07033 27.0243 5.859 27.011C5.649 26.9977 5.42867 26.991 5.198 26.991H4.033V33.696ZM184.433 46.784V28.8L198.111 28.763V46.783L184.433 46.784ZM176.8 46.784V21.125H183.527V46.783L176.8 46.784ZM162.418 46.784V28.765H175.878V46.783L162.418 46.784ZM213.133 46.784V44.076C213.133 43.89 213.095 43.706 213.022 43.535C212.915 43.2813 212.736 43.0647 212.506 42.9124C212.277 42.7602 212.007 42.679 211.732 42.679C211.457 42.679 211.187 42.7602 210.958 42.9124C210.728 43.0647 210.549 43.2813 210.442 43.535C210.369 43.7061 210.332 43.8901 210.332 44.076V46.781H207.859V44.076C207.859 43.8901 207.822 43.7061 207.749 43.535C207.642 43.2813 207.463 43.0647 207.233 42.9124C207.004 42.7602 206.734 42.679 206.459 42.679C206.184 42.679 205.914 42.7602 205.685 42.9124C205.455 43.0647 205.276 43.2813 205.169 43.535C205.096 43.706 205.058 43.89 205.058 44.076V46.781H201.515V28.657H206.884L208.023 0.526001H210.331L211.472 28.657H216.891V46.782L213.133 46.784ZM162.418 27.875L166.373 23.975H175.915V27.875H162.418ZM184.442 27.793V23.893H194.019L197.974 27.793H184.442ZM176.773 20.331L180.26 17.051L183.572 20.331H176.773Z" fill="black"/>
</svg>
